<?xml version="1.0" standalone="no"?>
<!DOCTYPE svg PUBLIC "-//W3C//DTD SVG 20010904//EN"
 "http://www.w3.org/TR/2001/REC-SVG-20010904/DTD/svg10.dtd">
<svg version="1.0" xmlns="http://www.w3.org/2000/svg"
 width="640.000000pt" height="640.000000pt" viewBox="0 0 640.000000 640.000000"
 preserveAspectRatio="xMidYMid meet">

<g transform="translate(0.000000,640.000000) scale(0.100000,-0.100000)"
fill="#000000" stroke="none">
<path d="M0 3200 l0 -3200 627 2 627 3 8 45 c70 390 134 889 173 1339 8 96 17
176 19 178 3 3 53 -14 112 -37 388 -152 645 -202 1031 -204 212 -1 231 -2 215
-17 -9 -8 -89 -60 -177 -114 -88 -54 -182 -113 -210 -130 -27 -18 -171 -108
-320 -200 -284 -176 -303 -189 -287 -198 5 -4 58 24 118 62 60 38 303 189 539
336 723 450 716 446 711 464 -21 78 -12 184 23 251 15 30 62 72 92 82 7 2 58
376 59 431 0 4 7 7 15 7 24 0 34 -39 51 -218 17 -165 17 -168 55 -225 46 -70
59 -112 59 -192 0 -70 -31 -145 -76 -186 -16 -15 -78 -56 -139 -92 -60 -36
-193 -118 -295 -183 -229 -145 -780 -492 -997 -628 -90 -55 -163 -107 -163
-113 0 -7 2 -13 5 -13 7 0 773 480 1085 680 321 205 423 266 552 327 59 28
127 65 152 83 l46 31 0 -33 c0 -18 5 -215 10 -437 12 -495 26 -759 56 -1048
l5 -53 1310 0 1309 0 0 3200 0 3200 -3200 0 -3200 0 0 -3200z m2698 2015 c321
-48 539 -156 897 -441 174 -139 336 -291 408 -383 l46 -58 -167 -2 c-92 -1
-286 -6 -432 -11 -146 -5 -284 -10 -308 -10 -36 0 -44 -4 -54 -26 -11 -23 -10
-29 12 -46 13 -10 33 -18 44 -17 35 2 37 0 21 -37 -26 -63 -36 -157 -25 -230
23 -141 112 -257 246 -321 140 -66 304 -56 436 28 106 68 178 183 199 319 10
63 9 88 -4 150 -8 41 -18 82 -22 92 -5 12 1 18 26 23 19 4 33 15 36 26 8 29
18 23 50 -28 156 -250 200 -430 253 -1018 33 -370 34 -383 34 -535 0 -346 -84
-511 -379 -752 -92 -74 -244 -189 -360 -272 l-80 -58 -6 74 c-7 78 -31 146
-73 201 -23 30 -28 52 -45 211 -22 197 -32 226 -81 226 -36 0 -33 12 -60 -235
-21 -200 -19 -193 -78 -234 -11 -8 -33 -37 -49 -65 -26 -47 -28 -60 -29 -160
l-1 -108 -70 -44 c-64 -40 -79 -45 -164 -54 -124 -13 -430 -13 -560 0 -229 23
-434 72 -662 156 -447 167 -694 365 -851 681 -103 208 -144 426 -153 818 -9
403 37 686 187 1147 59 180 102 271 169 360 96 126 205 204 512 362 328 170
572 256 789 279 88 9 259 6 348 -8z m1274 -1035 c9 -31 17 -89 17 -133 3 -376
-436 -565 -703 -303 -29 28 -66 78 -82 111 -27 55 -29 69 -29 165 1 91 4 112
25 155 l25 50 205 5 c113 3 277 6 365 5 l159 0 18 -55z m1326 -1622 c13 -17
20 -65 36 -270 14 -165 14 -168 45 -203 46 -52 65 -95 65 -145 0 -55 -21 -96
-71 -144 -21 -19 -267 -190 -548 -378 -280 -189 -626 -422 -768 -517 -141 -96
-260 -172 -262 -169 -3 3 -9 87 -13 187 l-7 183 80 43 c44 23 294 152 555 285
261 134 515 265 564 291 l90 47 1 119 c1 159 28 216 107 232 32 7 33 9 39 66
4 33 10 130 14 215 3 85 9 158 11 162 8 13 51 9 62 -4z"/>
<path d="M2405 4280 c-49 -4 -304 -22 -565 -40 -496 -33 -510 -35 -510 -80 0
-27 22 -40 67 -40 l42 0 -26 -52 c-104 -208 -53 -436 129 -574 206 -155 478
-189 696 -87 68 32 195 155 235 227 75 135 107 303 88 450 -7 47 -14 93 -17
101 -5 11 1 15 21 15 39 0 65 17 65 43 0 49 -25 53 -225 37z m112 -135 c18
-82 16 -232 -6 -318 -90 -352 -392 -522 -733 -414 -270 86 -416 278 -379 499
12 70 58 185 83 205 15 12 30 13 563 48 215 14 397 27 405 29 42 11 55 1 67
-49z"/>
<path d="M2035 3908 c-11 -6 -25 -19 -32 -27 -15 -20 -17 -76 -2 -103 15 -28
72 -50 102 -39 30 12 67 57 67 82 0 69 -78 119 -135 87z"/>
<path d="M2760 3069 c-366 -16 -785 -39 -1035 -59 -287 -23 -335 -28 -335 -38
0 -4 93 0 208 9 398 33 604 46 907 59 505 21 888 30 1199 30 175 -1 321 1 324
4 8 9 -1045 4 -1268 -5z"/>
<path d="M3738 2893 c33 -130 37 -371 9 -503 -32 -147 -85 -286 -157 -409 -17
-29 -26 -51 -18 -49 7 3 32 40 55 84 122 226 178 490 154 714 -16 137 -44 260
-60 260 -5 0 3 -44 17 -97z"/>
<path d="M3673 4006 c-22 -19 -28 -32 -28 -66 0 -34 6 -47 28 -66 59 -51 147
-15 147 60 0 48 -8 65 -41 81 -40 21 -74 18 -106 -9z"/>
</g>
</svg>
